<svg width="52" height="51" viewBox="0 0 52 51" fill="none" xmlns="http://www.w3.org/2000/svg">
<path d="M51.1668 25.4352C51.1668 39.4827 39.7791 50.8704 25.7316 50.8704C11.6841 50.8704 0.296387 39.4827 0.296387 25.4352C0.296387 11.3877 11.6841 0 25.7316 0C39.7791 0 51.1668 11.3877 51.1668 25.4352Z" fill="#CC1414"/>
<mask id="mask0_160_50" style="mask-type:alpha" maskUnits="userSpaceOnUse" x="0" y="0" width="52" height="51">
<path d="M51.1668 25.4352C51.1668 39.4827 39.7791 50.8704 25.7316 50.8704C11.6841 50.8704 0.296387 39.4827 0.296387 25.4352C0.296387 11.3877 11.6841 0 25.7316 0C39.7791 0 51.1668 11.3877 51.1668 25.4352Z" fill="#CC1414"/>
</mask>
<g mask="url(#mask0_160_50)">
<path d="M-27 27.2291C-27 27.175 -27 27.0938 -27 26.9856C-27 26.8773 -27 26.7555 -27 26.6202C-26.9729 26.4849 -26.9594 26.3632 -26.9594 26.2549C-26.9594 26.1196 -26.9594 26.0384 -26.9594 26.0114C-26.9323 25.9302 -26.8376 25.8355 -26.6753 25.7272C-26.4859 25.619 -26.3505 25.5784 -26.2694 25.6055C-26.107 25.6596 -25.9582 25.849 -25.8229 26.1737C-25.6876 26.4985 -25.5523 26.8908 -25.417 27.3509C-25.2817 27.8109 -25.1328 28.325 -24.9705 28.8933C-24.781 29.4345 -24.551 29.9487 -24.2804 30.4358C-23.9828 30.8958 -23.631 31.3152 -23.2251 31.6941C-22.7921 32.0459 -22.2779 32.2759 -21.6826 32.3841C-21.4932 32.4112 -21.3444 32.4112 -21.2361 32.3841C-21.1279 32.33 -21.0602 32.2623 -21.0332 32.1812C-20.979 32.0729 -20.952 31.9647 -20.952 31.8564C-20.952 31.7211 -20.952 31.6129 -20.952 31.5317C-20.979 31.0446 -21.1685 30.544 -21.5203 30.0299C-21.872 29.4886 -22.2915 28.9204 -22.7786 28.325C-23.2657 27.7027 -23.7527 27.0532 -24.2398 26.3767C-24.7269 25.6731 -25.1328 24.9425 -25.4576 24.1848C-25.7823 23.4 -25.9852 22.5747 -26.0664 21.7088C-26.1476 20.8158 -25.9852 19.8687 -25.5793 18.8674C-25.5793 18.6239 -25.4576 18.2991 -25.214 17.8932C-24.9434 17.4873 -24.6322 17.1085 -24.2804 16.7567C-23.9016 16.3779 -23.5092 16.0531 -23.1033 15.7825C-22.6974 15.5119 -22.3456 15.3766 -22.0479 15.3766C-21.615 15.3766 -21.2091 15.4578 -20.8302 15.6202C-20.4243 15.7825 -20.1131 16.0531 -19.8966 16.432C-19.626 16.7838 -19.3148 17.2573 -18.963 17.8527C-18.5842 18.4209 -18.2595 18.9892 -17.9889 19.5575C-17.6912 20.1257 -17.5018 20.6399 -17.4206 21.0999C-17.3394 21.5599 -17.4612 21.8305 -17.7859 21.9117C-18.1648 21.9117 -18.4895 21.8035 -18.7601 21.587C-19.0036 21.3705 -19.2066 21.0999 -19.369 20.7752C-19.5313 20.4505 -19.6801 20.0987 -19.8154 19.7198C-19.9507 19.3139 -20.0996 18.9486 -20.2619 18.6239C-20.4243 18.2991 -20.6137 18.0285 -20.8302 17.8121C-21.0467 17.5685 -21.3308 17.4467 -21.6826 17.4467C-22.1697 17.4467 -22.6027 17.5956 -22.9815 17.8932C-23.3333 18.1909 -23.631 18.5562 -23.8745 18.9892C-24.091 19.4222 -24.2534 19.8957 -24.3616 20.4099C-24.4428 20.897 -24.4834 21.3299 -24.4834 21.7088C-24.4834 22.3853 -24.3616 23.0212 -24.1181 23.6165C-23.8475 24.1848 -23.5227 24.7395 -23.1439 25.2807C-22.738 25.7949 -22.305 26.309 -21.845 26.8232C-21.3579 27.3373 -20.9249 27.865 -20.5461 28.4062C-20.1402 28.9204 -19.8019 29.4616 -19.5313 30.0299C-19.2607 30.5981 -19.1254 31.207 -19.1254 31.8564C-19.1254 32.127 -19.1931 32.3976 -19.3284 32.6683C-19.4366 32.9118 -19.599 33.1553 -19.8154 33.3989C-20.0049 33.6154 -20.2349 33.7913 -20.5055 33.9266C-20.7761 34.0619 -21.0467 34.1295 -21.3173 34.1295C-22.075 34.1295 -22.7921 33.8995 -23.4686 33.4395C-24.1451 32.9794 -24.754 32.3976 -25.2952 31.6941C-25.8093 30.9905 -26.2288 30.2463 -26.5535 29.4616C-26.8512 28.6498 -27 27.9056 -27 27.2291Z" fill="white"/>
<path d="M-3.41031 29.1775C-3.81622 29.6645 -4.28978 30.1787 -4.83099 30.7199C-5.34514 31.2611 -5.91341 31.7617 -6.5358 32.2218C-7.13113 32.6818 -7.76705 33.0742 -8.44356 33.3989C-9.09301 33.6965 -9.76952 33.8454 -10.4731 33.8454C-11.9073 33.8454 -12.6244 33.1553 -12.6244 31.7753C-12.6244 31.207 -12.3944 30.4628 -11.9344 29.5428C-11.4473 28.5957 -10.8249 27.6079 -10.0672 26.5796C-9.30949 25.5514 -8.47062 24.5636 -7.55056 23.6165C-6.63051 22.6424 -5.71045 21.8441 -4.7904 21.2217C-3.87034 20.5722 -3.03147 20.1663 -2.27378 20.004C-1.48902 19.8416 -0.853101 20.0716 -0.366013 20.694C-0.366013 21.4246 -0.420134 22.1553 -0.528376 22.8859C-0.636617 23.6165 -0.744859 24.3472 -0.853101 25.0778C-0.961343 25.7814 -1.06958 26.4849 -1.17783 27.1885C-1.28607 27.8921 -1.34019 28.6092 -1.34019 29.3398C-1.34019 29.5022 -1.32666 29.7593 -1.2996 30.111C-1.24548 30.4358 -1.17783 30.774 -1.09665 31.1258C-0.988403 31.4505 -0.853101 31.7482 -0.690738 32.0188C-0.528376 32.2623 -0.311892 32.3841 -0.0412872 32.3841C0.608164 32.3841 1.13584 32.3029 1.54175 32.1406C1.97472 31.9782 2.34003 31.7888 2.6377 31.5723C2.96242 31.3288 3.23303 31.0582 3.44951 30.7605C3.69306 30.4628 3.9366 30.1652 4.18014 29.8675C4.45075 29.5698 4.74841 29.2857 5.07314 29.0151C5.39787 28.7445 5.8173 28.528 6.33145 28.3656C6.33145 28.3656 6.33145 28.4062 6.33145 28.4874C6.33145 28.5686 6.33145 28.6362 6.33145 28.6904C6.33145 29.3669 6.1285 30.0434 5.72259 30.7199C5.31668 31.3694 4.80254 31.9512 4.18014 32.4653C3.55775 32.9794 2.85418 33.3989 2.06943 33.7236C1.31174 34.0213 0.567573 34.1701 -0.163059 34.1701C-0.78545 34.1701 -1.28607 33.9942 -1.66491 33.6424C-2.04376 33.2906 -2.35496 32.8712 -2.5985 32.3841C-2.81498 31.897 -2.97735 31.3694 -3.08559 30.8011C-3.19383 30.2058 -3.30207 29.6645 -3.41031 29.1775ZM-2.67968 23.8601C-2.40908 22.9671 -2.31437 22.3582 -2.39555 22.0335C-2.44967 21.7088 -2.63909 21.587 -2.96382 21.6682C-3.28854 21.7223 -3.70798 21.9523 -4.22213 22.3582C-4.73628 22.7371 -5.29102 23.2106 -5.88635 23.7789C-6.48168 24.3201 -7.07701 24.929 -7.67234 25.6055C-8.26767 26.282 -8.82241 26.9314 -9.33655 27.5538C-9.8507 28.1492 -10.2701 28.6904 -10.5949 29.1775C-10.9196 29.6645 -11.1225 30.0163 -11.2037 30.2328C-11.3661 30.8552 -11.3931 31.3288 -11.2849 31.6535C-11.1496 31.9782 -10.9602 32.2082 -10.7166 32.3435C-10.446 32.4518 -10.1619 32.4653 -9.86423 32.3841C-9.53951 32.3029 -9.2689 32.1812 -9.05242 32.0188C-8.59239 31.6129 -8.01059 31.0717 -7.30702 30.3952C-6.60345 29.6916 -5.92694 28.9474 -5.27749 28.1627C-4.60097 27.3779 -4.01917 26.6067 -3.53209 25.849C-3.045 25.0643 -2.76086 24.4013 -2.67968 23.8601Z" fill="white"/>
<path d="M12.183 31.2882C12.2371 31.0717 12.3183 30.7199 12.4266 30.2328C12.5348 29.7187 12.643 29.1504 12.7513 28.528C12.8866 27.9056 13.0083 27.2426 13.1166 26.5391C13.2519 25.8355 13.3737 25.1725 13.4819 24.5501C13.6172 23.9277 13.7255 23.3595 13.8066 22.8453C13.8878 22.3312 13.9419 21.9523 13.969 21.7088C13.9961 21.6005 13.9961 21.4382 13.969 21.2217C13.9419 21.0052 13.9149 20.7616 13.8878 20.491C13.8608 20.2204 13.8337 19.9769 13.8066 19.7604C13.7796 19.5439 13.766 19.3816 13.766 19.2733C13.6849 19.2733 13.5496 19.2463 13.3601 19.1921C13.1707 19.138 12.9678 19.0974 12.7513 19.0704C12.5619 19.0162 12.386 18.9757 12.2236 18.9486C12.0612 18.8945 11.9395 18.8674 11.8583 18.8674C11.2088 19.111 10.7217 19.4222 10.397 19.801C10.0994 20.1528 9.81522 20.5046 9.54461 20.8564C9.30107 21.2081 9.0034 21.5193 8.65162 21.7899C8.29983 22.0335 7.78568 22.1553 7.10917 22.1553C6.86563 22.1553 6.68973 22.0606 6.58149 21.8711C6.47325 21.6817 6.41913 21.4652 6.41913 21.2217V21.0593C7.01446 20.3828 7.58273 19.801 8.12394 19.3139C8.63809 18.8268 9.19283 18.4209 9.78816 18.0962C10.3835 17.7444 11.0329 17.4873 11.7365 17.325C12.4401 17.1626 13.2519 17.0814 14.1719 17.0814C14.5779 17.0814 14.8755 17.1626 15.0649 17.325C15.2814 17.4603 15.4438 17.6497 15.552 17.8932C15.6603 18.1097 15.7144 18.3668 15.7144 18.6645C15.7415 18.9621 15.755 19.2869 15.755 19.6386C15.755 20.3693 15.6738 21.0999 15.5114 21.8305C15.3761 22.5341 15.2138 23.2512 15.0244 23.9818C14.862 24.6854 14.6996 25.4025 14.5373 26.1332C14.3749 26.8367 14.2937 27.5674 14.2937 28.325V28.4874C14.3749 28.2709 14.5508 27.9191 14.8214 27.4321C15.092 26.9179 15.3761 26.3767 15.6738 25.8084C15.9715 25.2402 16.2556 24.7125 16.5262 24.2254C16.8239 23.7112 17.0268 23.3595 17.1351 23.17C17.1621 23.143 17.2568 23.0347 17.4192 22.8453C17.5816 22.6288 17.771 22.3853 17.9875 22.1147C18.231 21.8441 18.461 21.587 18.6775 21.3434C18.9211 21.0728 19.124 20.8564 19.2864 20.694C19.4487 20.4775 19.6382 20.2475 19.8546 20.004C20.0982 19.7604 20.3417 19.5304 20.5853 19.3139C20.8559 19.0974 21.1265 18.9215 21.3971 18.7862C21.6948 18.6239 21.9924 18.5427 22.2901 18.5427C22.5336 18.5427 22.7095 18.6374 22.8178 18.8268C22.9531 19.0162 23.0478 19.2463 23.1019 19.5169C23.156 19.7875 23.1831 20.0716 23.1831 20.3693C23.1831 20.6399 23.1831 20.8699 23.1831 21.0593C23.1831 21.8711 23.0884 22.6829 22.8989 23.4948C22.7095 24.3066 22.5066 25.1184 22.2901 25.9302C22.0736 26.715 21.8571 27.5132 21.6406 28.325C21.4512 29.1369 21.3565 29.9487 21.3565 30.7605C21.3565 31.1123 21.4106 31.4099 21.5189 31.6535C21.6271 31.897 21.8706 32.0188 22.2495 32.0188C22.7366 32.0188 23.1831 31.8835 23.589 31.6129C23.9949 31.3423 24.3737 31.0582 24.7255 30.7605C25.1044 30.4358 25.4697 30.1381 25.8215 29.8675C26.2003 29.5969 26.6198 29.4616 27.0798 29.4616V30.2328C27.0798 30.2599 27.0121 30.3411 26.8768 30.4764C26.7415 30.6117 26.5792 30.774 26.3897 30.9634C26.2003 31.1529 25.9974 31.3423 25.7809 31.5317C25.5915 31.7211 25.4291 31.8835 25.2938 32.0188C25.0773 32.2082 24.8338 32.4112 24.5632 32.6277C24.2926 32.8441 24.0084 33.0471 23.7108 33.2365C23.4402 33.3989 23.1425 33.5477 22.8178 33.683C22.493 33.7913 22.1818 33.8454 21.8842 33.8454C21.4783 33.8454 21.14 33.7371 20.8694 33.5207C20.6259 33.2771 20.4364 32.993 20.3011 32.6683C20.1658 32.3165 20.0711 31.9512 20.017 31.5723C19.9629 31.1935 19.9358 30.8552 19.9358 30.5575C19.9358 29.7457 20.0035 28.9474 20.1388 28.1627C20.3011 27.3509 20.4635 26.5661 20.6259 25.8084C20.7882 25.0237 20.9371 24.2389 21.0724 23.4542C21.2077 22.6694 21.2753 21.8711 21.2753 21.0593H21.0318C21.0047 21.0593 20.91 21.1405 20.7476 21.3029C20.5853 21.4652 20.3823 21.6546 20.1388 21.8711C19.9223 22.0876 19.7058 22.3176 19.4893 22.5612C19.2728 22.8047 19.0834 23.0077 18.9211 23.17C18.7858 23.3324 18.6369 23.5353 18.4746 23.7789C18.3122 23.9954 18.1498 24.2389 17.9875 24.5095C17.8251 24.7801 17.6627 25.0507 17.5004 25.3213C17.3651 25.5649 17.2433 25.7949 17.1351 26.0114C17.0539 26.2008 16.9186 26.4849 16.7292 26.8638C16.5397 27.2426 16.3233 27.6756 16.0797 28.1627C15.8632 28.6498 15.6197 29.1639 15.3491 29.7051C15.1055 30.2463 14.862 30.7605 14.6184 31.2476C14.402 31.7347 14.199 32.1676 14.0096 32.5465C13.8202 32.9253 13.6849 33.2095 13.6037 33.3989C13.5766 33.5071 13.4684 33.656 13.279 33.8454C13.0895 34.0077 12.9678 34.1025 12.9136 34.1295C12.8595 34.1566 12.8325 34.1701 12.8325 34.1701H12.6295C12.6024 34.1701 12.5754 34.1566 12.5483 34.1295C12.4942 34.1025 12.413 34.0483 12.3048 33.9672C12.2236 33.886 12.183 33.8319 12.183 33.8048V31.2882Z" fill="white"/>
<path d="M33.9055 32.7494C33.9055 32.6683 33.9055 32.533 33.9055 32.3435C33.9055 32.127 33.892 31.9106 33.8649 31.6941C33.8649 31.4505 33.8649 31.234 33.8649 31.0446C33.8649 30.8281 33.8649 30.6658 33.8649 30.5575C33.8649 29.7728 33.9326 29.0151 34.0679 28.2845C34.2032 27.5268 34.352 26.7826 34.5144 26.052C34.7038 25.2943 34.8662 24.5366 35.0015 23.7789C35.1368 23.0212 35.2044 22.25 35.2044 21.4652C34.8797 21.4652 34.4873 21.6141 34.0273 21.9117C33.5943 22.2094 33.1343 22.5476 32.6472 22.9265C32.1601 23.3053 31.7001 23.6977 31.2671 24.1036C30.8612 24.4825 30.55 24.7666 30.3335 24.956C30.3335 24.956 30.293 24.956 30.2118 24.956C30.1306 24.956 30.0629 24.956 30.0088 24.956C29.4947 24.956 29.2376 24.7125 29.2376 24.2254C29.2376 23.9007 29.4 23.5624 29.7247 23.2106C30.0765 22.8318 30.4959 22.4665 30.983 22.1147C31.4971 21.7358 32.0384 21.384 32.6066 21.0593C33.202 20.7346 33.7432 20.4369 34.2302 20.1663C34.7444 19.8687 35.1638 19.6116 35.4886 19.3951C35.8403 19.1786 36.0162 19.0027 36.0162 18.8674C36.2598 17.7309 36.368 16.7838 36.341 16.0261C36.3139 15.2684 36.2057 14.6595 36.0162 14.1995C35.8539 13.7395 35.6103 13.4283 35.2856 13.2659C34.9879 13.0765 34.6632 12.9953 34.3114 13.0224C33.9867 13.0494 33.6484 13.1712 33.2967 13.3877C32.9449 13.6042 32.6472 13.8748 32.4037 14.1995C32.2142 13.983 32.0925 13.8071 32.0384 13.6718C31.9842 13.5094 31.9572 13.3336 31.9572 13.1441C32.5796 12.5217 33.1884 12.1294 33.7838 11.967C34.4061 11.8046 34.9879 11.8182 35.5292 12.0076C36.0704 12.17 36.5574 12.4676 36.9904 12.9006C37.4234 13.3336 37.7481 13.8477 37.9646 14.443C38.2081 15.0113 38.3164 15.6337 38.2893 16.3102C38.2893 16.9597 38.127 17.5956 37.8022 18.218C37.8564 18.1909 37.9646 18.1368 38.127 18.0556C38.2893 17.9744 38.4652 17.9068 38.6546 17.8527C38.8441 17.7715 39.02 17.7038 39.1823 17.6497C39.3717 17.5685 39.507 17.5144 39.5882 17.4873H39.9129C39.94 17.4873 39.9671 17.582 39.9941 17.7715C40.0482 17.9338 40.1024 18.1368 40.1565 18.3803C40.2377 18.5968 40.3053 18.7998 40.3594 18.9892C40.4136 19.1516 40.4406 19.2463 40.4406 19.2733L37.4369 20.694C37.4099 20.7211 37.3151 21.0187 37.1528 21.587C37.0175 22.1282 36.8551 22.7777 36.6657 23.5353C36.4763 24.266 36.2868 25.0372 36.0974 25.849C35.908 26.6338 35.7727 27.2697 35.6915 27.7568C35.6374 27.865 35.5833 28.0815 35.5292 28.4062C35.5021 28.7039 35.475 29.0286 35.448 29.3804C35.4209 29.7051 35.3938 30.0299 35.3668 30.3546C35.3397 30.6522 35.3262 30.8552 35.3262 30.9634C35.3262 31.1258 35.3397 31.3152 35.3668 31.5317C35.3938 31.7482 35.4344 31.9512 35.4886 32.1406C35.5697 32.3029 35.678 32.4518 35.8133 32.5871C35.9486 32.6953 36.1245 32.7494 36.341 32.7494C37.1257 32.7494 37.8158 32.6006 38.4111 32.3029C39.0335 31.9782 39.5747 31.6264 40.0347 31.2476C40.4947 30.8687 40.9007 30.5169 41.2524 30.1922C41.6313 29.8675 41.9695 29.7051 42.2672 29.7051C42.3213 29.7051 42.389 29.7187 42.4702 29.7457C42.5784 29.7457 42.6325 29.7593 42.6325 29.7863C42.5513 30.5711 42.3213 31.2476 41.9425 31.8158C41.5907 32.3571 41.1442 32.8036 40.603 33.1553C40.0888 33.5071 39.48 33.7642 38.7764 33.9266C38.0728 34.0889 37.3151 34.1701 36.5033 34.1701C36.2598 34.1701 35.9892 34.1566 35.6915 34.1295C35.3938 34.1025 35.1232 34.0348 34.8797 33.9266C34.6362 33.8183 34.4197 33.6695 34.2302 33.4801C34.0679 33.2906 33.9596 33.0471 33.9055 32.7494Z" fill="white"/>
<path d="M55.0192 29.1775C54.6133 29.6645 54.1397 30.1787 53.5985 30.7199C53.0843 31.2611 52.5161 31.7617 51.8937 32.2218C51.2984 32.6818 50.6624 33.0742 49.9859 33.3989C49.3365 33.6965 48.66 33.8454 47.9564 33.8454C46.5222 33.8454 45.8051 33.1553 45.8051 31.7753C45.8051 31.207 46.0351 30.4628 46.4951 29.5428C46.9822 28.5957 47.6046 27.6079 48.3623 26.5796C49.12 25.5514 49.9589 24.5636 50.8789 23.6165C51.799 22.6424 52.719 21.8441 53.6391 21.2217C54.5591 20.5722 55.398 20.1663 56.1557 20.004C56.9405 19.8416 57.5764 20.0716 58.0635 20.694C58.0635 21.4246 58.0094 22.1553 57.9011 22.8859C57.7929 23.6165 57.6846 24.3472 57.5764 25.0778C57.4681 25.7814 57.3599 26.4849 57.2517 27.1885C57.1434 27.8921 57.0893 28.6092 57.0893 29.3398C57.0893 29.5022 57.1028 29.7593 57.1299 30.111C57.184 30.4358 57.2517 30.774 57.3328 31.1258C57.4411 31.4505 57.5764 31.7482 57.7387 32.0188C57.9011 32.2623 58.1176 32.3841 58.3882 32.3841C59.0376 32.3841 59.5653 32.3029 59.9712 32.1406C60.4042 31.9782 60.7695 31.7888 61.0672 31.5723C61.3919 31.3288 61.6625 31.0582 61.879 30.7605C62.1225 30.4628 62.3661 30.1652 62.6096 29.8675C62.8802 29.5698 63.1779 29.2857 63.5026 29.0151C63.8274 28.7445 64.2468 28.528 64.7609 28.3656C64.7609 28.3656 64.7609 28.4062 64.7609 28.4874C64.7609 28.5686 64.7609 28.6362 64.7609 28.6904C64.7609 29.3669 64.558 30.0434 64.1521 30.7199C63.7462 31.3694 63.232 31.9512 62.6096 32.4653C61.9872 32.9794 61.2837 33.3989 60.4989 33.7236C59.7412 34.0213 58.9971 34.1701 58.2664 34.1701C57.644 34.1701 57.1434 33.9942 56.7646 33.6424C56.3857 33.2906 56.0745 32.8712 55.831 32.3841C55.6145 31.897 55.4521 31.3694 55.3439 30.8011C55.2357 30.2058 55.1274 29.6645 55.0192 29.1775ZM55.7498 23.8601C56.0204 22.9671 56.1151 22.3582 56.0339 22.0335C55.9798 21.7088 55.7904 21.587 55.4657 21.6682C55.1409 21.7223 54.7215 21.9523 54.2074 22.3582C53.6932 22.7371 53.1385 23.2106 52.5431 23.7789C51.9478 24.3201 51.3525 24.929 50.7572 25.6055C50.1618 26.282 49.6071 26.9314 49.0929 27.5538C48.5788 28.1492 48.1593 28.6904 47.8346 29.1775C47.5099 29.6645 47.3069 30.0163 47.2258 30.2328C47.0634 30.8552 47.0363 31.3288 47.1446 31.6535C47.2799 31.9782 47.4693 32.2082 47.7129 32.3435C47.9835 32.4518 48.2676 32.4653 48.5653 32.3841C48.89 32.3029 49.1606 32.1812 49.3771 32.0188C49.8371 31.6129 50.4189 31.0717 51.1225 30.3952C51.826 29.6916 52.5025 28.9474 53.152 28.1627C53.8285 27.3779 54.4103 26.6067 54.8974 25.849C55.3845 25.0643 55.6686 24.4013 55.7498 23.8601Z" fill="white"/>
<path d="M70.856 28.4468C70.856 27.7432 70.8966 27.0532 70.9778 26.3767C71.059 25.6731 71.1402 24.9831 71.2214 24.3066C71.3296 23.603 71.4243 22.913 71.5055 22.2364C71.5867 21.5329 71.6273 20.8158 71.6273 20.0851C71.6273 19.9228 71.5867 19.7469 71.5055 19.5575C71.4514 19.341 71.289 19.2327 71.0184 19.2327C70.6666 19.2327 70.4366 19.2598 70.3284 19.3139C70.2201 19.368 70.1389 19.4357 70.0848 19.5169C70.0578 19.598 69.9901 19.6928 69.8819 19.801C69.8007 19.9092 69.5977 20.0175 69.273 20.1257H69.07C68.5018 20.1257 68.2176 19.8281 68.2176 19.2327C68.2176 19.0704 68.3935 18.8133 68.7453 18.4615C69.1242 18.1097 69.5571 17.785 70.0442 17.4873C70.5313 17.1626 70.9913 16.892 71.4243 16.6755C71.8573 16.432 72.1414 16.3508 72.2767 16.432C72.3308 16.432 72.412 16.4861 72.5203 16.5943C72.6285 16.6755 72.7367 16.7838 72.845 16.9191C72.9532 17.0273 73.0479 17.1355 73.1291 17.2438C73.2374 17.352 73.305 17.4332 73.3321 17.4873C73.3321 17.5415 73.3321 17.6497 73.3321 17.8121C73.3321 17.9744 73.3321 18.1503 73.3321 18.3397C73.3591 18.5292 73.3727 18.7186 73.3727 18.908C73.3727 19.0704 73.3727 19.1921 73.3727 19.2733C73.3727 20.0581 73.3185 20.8428 73.2103 21.6276C73.1021 22.3853 72.9668 23.1565 72.8044 23.9413C72.6691 24.726 72.5473 25.5108 72.4391 26.2955C72.3308 27.0803 72.2767 27.865 72.2767 28.6498C72.2767 28.7851 72.2902 29.0557 72.3173 29.4616C72.3444 29.8675 72.3985 30.2869 72.4797 30.7199C72.5879 31.1529 72.7367 31.5452 72.9262 31.897C73.1156 32.2218 73.3727 32.3841 73.6974 32.3841C74.3468 32.3841 74.8339 32.3029 75.1586 32.1406C75.4834 31.9512 75.7675 31.7482 76.0111 31.5317C76.2546 31.3152 76.5117 31.1258 76.7823 30.9634C77.0799 30.774 77.4858 30.6793 78 30.6793C78 31.8158 77.5806 32.6818 76.7417 33.2771C75.9028 33.8724 74.8339 34.1701 73.535 34.1701C72.8585 34.1701 72.3444 33.9536 71.9926 33.5207C71.6408 33.0877 71.3702 32.5735 71.1808 31.9782C71.0184 31.3558 70.9237 30.7199 70.8966 30.0704C70.8696 29.421 70.856 28.8798 70.856 28.4468ZM71.2619 11.4799C71.2619 11.1822 71.3025 10.9522 71.3837 10.7899C71.492 10.6275 71.722 10.5463 72.0738 10.5463C72.3173 10.5463 72.4797 10.641 72.5608 10.8305C72.6691 10.9928 72.7232 11.2093 72.7232 11.4799C72.7232 11.7235 72.6691 11.9399 72.5608 12.1294C72.4797 12.2917 72.3173 12.3729 72.0738 12.3729C71.722 12.3729 71.492 12.3053 71.3837 12.17C71.3025 12.0076 71.2619 11.7776 71.2619 11.4799Z" fill="white"/>
</g>
</svg>
