<svg width="105" height="51" viewBox="0 0 105 51" fill="none" xmlns="http://www.w3.org/2000/svg">
<path d="M78.1668 25.4352C78.1668 39.4827 66.7791 50.8704 52.7316 50.8704C38.6841 50.8704 27.2964 39.4827 27.2964 25.4352C27.2964 11.3877 38.6841 0 52.7316 0C66.7791 0 78.1668 11.3877 78.1668 25.4352Z" fill="#CC1414"/>
<path d="M0 27.2291C0 27.175 0 27.0938 0 26.9856C0 26.8773 0 26.7555 0 26.6202C0.0270605 26.4849 0.0405907 26.3632 0.0405907 26.2549C0.0405907 26.1196 0.0405907 26.0384 0.0405907 26.0114C0.0676512 25.9302 0.162363 25.8355 0.324726 25.7272C0.514149 25.619 0.649451 25.5784 0.730632 25.6055C0.892995 25.6596 1.04183 25.849 1.17713 26.1737C1.31243 26.4985 1.44773 26.8908 1.58304 27.3509C1.71834 27.8109 1.86717 28.325 2.02953 28.8933C2.21896 29.4345 2.44897 29.9487 2.71958 30.4358C3.01724 30.8958 3.36903 31.3152 3.77493 31.6941C4.2079 32.0459 4.72205 32.2759 5.31738 32.3841C5.5068 32.4112 5.65564 32.4112 5.76388 32.3841C5.87212 32.33 5.93977 32.2623 5.96683 32.1812C6.02095 32.0729 6.04801 31.9647 6.04801 31.8564C6.04801 31.7211 6.04801 31.6129 6.04801 31.5317C6.02095 31.0446 5.83153 30.544 5.47974 30.0299C5.12796 29.4886 4.70852 28.9204 4.22143 28.325C3.73434 27.7027 3.24726 27.0532 2.76017 26.3767C2.27308 25.6731 1.86717 24.9425 1.54245 24.1848C1.21772 23.4 1.01477 22.5747 0.933586 21.7088C0.852405 20.8158 1.01477 19.8687 1.42067 18.8674C1.42067 18.6239 1.54245 18.2991 1.78599 17.8932C2.0566 17.4873 2.36779 17.1085 2.71958 16.7567C3.09842 16.3779 3.4908 16.0531 3.89671 15.7825C4.30261 15.5119 4.6544 15.3766 4.95206 15.3766C5.38503 15.3766 5.79094 15.4578 6.16979 15.6202C6.57569 15.7825 6.88689 16.0531 7.10337 16.432C7.37398 16.7838 7.68517 17.2573 8.03696 17.8527C8.4158 18.4209 8.74053 18.9892 9.01113 19.5575C9.3088 20.1257 9.49822 20.6399 9.5794 21.0999C9.66058 21.5599 9.53881 21.8305 9.21409 21.9117C8.83524 21.9117 8.51052 21.8035 8.23991 21.587C7.99637 21.3705 7.79341 21.0999 7.63105 20.7752C7.46869 20.4505 7.31985 20.0987 7.18455 19.7198C7.04925 19.3139 6.90042 18.9486 6.73805 18.6239C6.57569 18.2991 6.38627 18.0285 6.16979 17.8121C5.9533 17.5685 5.66917 17.4467 5.31738 17.4467C4.83029 17.4467 4.39733 17.5956 4.01848 17.8932C3.66669 18.1909 3.36903 18.5562 3.12548 18.9892C2.909 19.4222 2.74664 19.8957 2.63839 20.4099C2.55721 20.897 2.51662 21.3299 2.51662 21.7088C2.51662 22.3853 2.63839 23.0212 2.88194 23.6165C3.15254 24.1848 3.47727 24.7395 3.85612 25.2807C4.26202 25.7949 4.69499 26.309 5.15502 26.8232C5.64211 27.3373 6.07507 27.865 6.45392 28.4062C6.85983 28.9204 7.19808 29.4616 7.46869 30.0299C7.73929 30.5981 7.87459 31.207 7.87459 31.8564C7.87459 32.127 7.80694 32.3976 7.67164 32.6683C7.5634 32.9118 7.40104 33.1553 7.18455 33.3989C6.99513 33.6154 6.76512 33.7913 6.49451 33.9266C6.22391 34.0619 5.9533 34.1295 5.6827 34.1295C4.925 34.1295 4.2079 33.8995 3.53139 33.4395C2.85488 32.9794 2.24602 32.3976 1.70481 31.6941C1.19066 30.9905 0.771223 30.2463 0.446498 29.4616C0.148833 28.6498 0 27.9056 0 27.2291Z" fill="black"/>
<path d="M23.5897 29.1775C23.1838 29.6645 22.7102 30.1787 22.169 30.7199C21.6549 31.2611 21.0866 31.7617 20.4642 32.2218C19.8689 32.6818 19.233 33.0742 18.5564 33.3989C17.907 33.6966 17.2305 33.8454 16.5269 33.8454C15.0927 33.8454 14.3756 33.1553 14.3756 31.7753C14.3756 31.207 14.6056 30.4628 15.0656 29.5428C15.5527 28.5957 16.1751 27.6079 16.9328 26.5796C17.6905 25.5514 18.5294 24.5636 19.4494 23.6165C20.3695 22.6424 21.2895 21.8441 22.2096 21.2217C23.1297 20.5722 23.9685 20.1663 24.7262 20.004C25.511 19.8416 26.1469 20.0716 26.634 20.694C26.634 21.4246 26.5799 22.1553 26.4716 22.8859C26.3634 23.6165 26.2551 24.3472 26.1469 25.0778C26.0387 25.7814 25.9304 26.4849 25.8222 27.1885C25.7139 27.8921 25.6598 28.6092 25.6598 29.3398C25.6598 29.5022 25.6733 29.7593 25.7004 30.111C25.7545 30.4358 25.8222 30.774 25.9034 31.1258C26.0116 31.4505 26.1469 31.7482 26.3093 32.0188C26.4716 32.2623 26.6881 32.3841 26.9587 32.3841C27.6082 32.3841 28.1358 32.3029 28.5417 32.1406C28.9747 31.9782 29.34 31.7888 29.6377 31.5723C29.9624 31.3288 30.233 31.0582 30.4495 30.7605C30.6931 30.4628 30.9366 30.1652 31.1801 29.8675C31.4507 29.5698 31.7484 29.2857 32.0731 29.0151C32.3979 28.7445 32.8173 28.528 33.3315 28.3656C33.3315 28.3656 33.3315 28.4062 33.3315 28.4874C33.3315 28.5686 33.3315 28.6362 33.3315 28.6904C33.3315 29.3669 33.1285 30.0434 32.7226 30.7199C32.3167 31.3694 31.8025 31.9512 31.1801 32.4653C30.5578 32.9794 29.8542 33.3989 29.0694 33.7236C28.3117 34.0213 27.5676 34.1701 26.8369 34.1701C26.2146 34.1701 25.7139 33.9942 25.3351 33.6424C24.9562 33.2906 24.645 32.8712 24.4015 32.3841C24.185 31.897 24.0227 31.3694 23.9144 30.8011C23.8062 30.2058 23.6979 29.6645 23.5897 29.1775ZM24.3203 23.8601C24.5909 22.9671 24.6856 22.3582 24.6045 22.0335C24.5503 21.7088 24.3609 21.587 24.0362 21.6682C23.7115 21.7223 23.292 21.9523 22.7779 22.3582C22.2637 22.7371 21.709 23.2106 21.1137 23.7789C20.5183 24.3201 19.923 24.929 19.3277 25.6055C18.7323 26.282 18.1776 26.9314 17.6634 27.5538C17.1493 28.1492 16.7299 28.6904 16.4051 29.1775C16.0804 29.6645 15.8775 30.0163 15.7963 30.2328C15.6339 30.8552 15.6069 31.3288 15.7151 31.6535C15.8504 31.9782 16.0398 32.2082 16.2834 32.3435C16.554 32.4518 16.8381 32.4653 17.1358 32.3841C17.4605 32.3029 17.7311 32.1812 17.9476 32.0188C18.4076 31.6129 18.9894 31.0717 19.693 30.3952C20.3966 29.6916 21.0731 28.9474 21.7225 28.1627C22.399 27.3779 22.9808 26.6067 23.4679 25.849C23.955 25.0643 24.2391 24.4013 24.3203 23.8601Z" fill="black"/>
<path d="M39.183 31.2882C39.2371 31.0717 39.3183 30.7199 39.4266 30.2328C39.5348 29.7187 39.643 29.1504 39.7513 28.528C39.8866 27.9056 40.0084 27.2426 40.1166 26.5391C40.2519 25.8355 40.3737 25.1725 40.4819 24.5501C40.6172 23.9277 40.7255 23.3595 40.8066 22.8453C40.8878 22.3312 40.9419 21.9523 40.969 21.7088C40.9961 21.6005 40.9961 21.4382 40.969 21.2217C40.9419 21.0052 40.9149 20.7617 40.8878 20.491C40.8608 20.2204 40.8337 19.9769 40.8066 19.7604C40.7796 19.5439 40.766 19.3816 40.766 19.2733C40.6849 19.2733 40.5496 19.2463 40.3601 19.1921C40.1707 19.138 39.9678 19.0974 39.7513 19.0704C39.5619 19.0162 39.386 18.9757 39.2236 18.9486C39.0612 18.8945 38.9395 18.8674 38.8583 18.8674C38.2088 19.111 37.7217 19.4222 37.397 19.801C37.0993 20.1528 36.8152 20.5046 36.5446 20.8564C36.3011 21.2081 36.0034 21.5193 35.6516 21.7899C35.2998 22.0335 34.7857 22.1553 34.1092 22.1553C33.8656 22.1553 33.6897 22.0606 33.5815 21.8711C33.4733 21.6817 33.4191 21.4652 33.4191 21.2217V21.0593C34.0145 20.3828 34.5827 19.801 35.1239 19.3139C35.6381 18.8268 36.1928 18.4209 36.7882 18.0962C37.3835 17.7444 38.0329 17.4873 38.7365 17.325C39.4401 17.1626 40.2519 17.0814 41.1719 17.0814C41.5779 17.0814 41.8755 17.1626 42.0649 17.325C42.2814 17.4603 42.4438 17.6497 42.552 17.8932C42.6603 18.1097 42.7144 18.3668 42.7144 18.6645C42.7415 18.9621 42.755 19.2869 42.755 19.6386C42.755 20.3693 42.6738 21.0999 42.5114 21.8305C42.3761 22.5341 42.2138 23.2512 42.0244 23.9818C41.862 24.6854 41.6996 25.4025 41.5373 26.1332C41.3749 26.8367 41.2937 27.5674 41.2937 28.325V28.4874C41.3749 28.2709 41.5508 27.9191 41.8214 27.4321C42.092 26.9179 42.3761 26.3767 42.6738 25.8084C42.9715 25.2402 43.2556 24.7125 43.5262 24.2254C43.8239 23.7112 44.0268 23.3595 44.1351 23.17C44.1621 23.143 44.2568 23.0347 44.4192 22.8453C44.5816 22.6288 44.771 22.3853 44.9875 22.1147C45.231 21.8441 45.461 21.587 45.6775 21.3434C45.9211 21.0728 46.124 20.8564 46.2864 20.694C46.4487 20.4775 46.6382 20.2475 46.8546 20.004C47.0982 19.7604 47.3417 19.5304 47.5853 19.3139C47.8559 19.0974 48.1265 18.9215 48.3971 18.7862C48.6948 18.6239 48.9924 18.5427 49.2901 18.5427C49.5336 18.5427 49.7095 18.6374 49.8178 18.8268C49.9531 19.0162 50.0478 19.2463 50.1019 19.5169C50.156 19.7875 50.1831 20.0716 50.1831 20.3693C50.1831 20.6399 50.1831 20.8699 50.1831 21.0593C50.1831 21.8711 50.0884 22.6829 49.8989 23.4948C49.7095 24.3066 49.5066 25.1184 49.2901 25.9302C49.0736 26.715 48.8571 27.5132 48.6406 28.325C48.4512 29.1369 48.3565 29.9487 48.3565 30.7605C48.3565 31.1123 48.4106 31.4099 48.5189 31.6535C48.6271 31.897 48.8707 32.0188 49.2495 32.0188C49.7366 32.0188 50.1831 31.8835 50.589 31.6129C50.9949 31.3423 51.3737 31.0582 51.7255 30.7605C52.1044 30.4358 52.4697 30.1381 52.8215 29.8675C53.2003 29.5969 53.6198 29.4616 54.0798 29.4616V30.2328C54.0798 30.2599 54.0121 30.3411 53.8768 30.4764C53.7415 30.6117 53.5792 30.774 53.3897 30.9634C53.2003 31.1529 52.9974 31.3423 52.7809 31.5317C52.5915 31.7211 52.4291 31.8835 52.2938 32.0188C52.0773 32.2082 51.8338 32.4112 51.5632 32.6277C51.2926 32.8441 51.0084 33.0471 50.7108 33.2365C50.4402 33.3989 50.1425 33.5477 49.8178 33.683C49.493 33.7913 49.1818 33.8454 48.8842 33.8454C48.4783 33.8454 48.14 33.7371 47.8694 33.5207C47.6259 33.2771 47.4364 32.993 47.3011 32.6683C47.1658 32.3165 47.0711 31.9512 47.017 31.5723C46.9629 31.1935 46.9358 30.8552 46.9358 30.5575C46.9358 29.7457 47.0035 28.9474 47.1388 28.1627C47.3011 27.3509 47.4635 26.5661 47.6259 25.8084C47.7882 25.0237 47.9371 24.2389 48.0724 23.4542C48.2077 22.6694 48.2753 21.8711 48.2753 21.0593H48.0318C48.0047 21.0593 47.91 21.1405 47.7476 21.3029C47.5853 21.4652 47.3823 21.6546 47.1388 21.8711C46.9223 22.0876 46.7058 22.3176 46.4893 22.5612C46.2728 22.8047 46.0834 23.0077 45.9211 23.17C45.7858 23.3324 45.6369 23.5353 45.4746 23.7789C45.3122 23.9954 45.1498 24.2389 44.9875 24.5095C44.8251 24.7801 44.6627 25.0507 44.5004 25.3213C44.3651 25.5649 44.2433 25.7949 44.1351 26.0114C44.0539 26.2008 43.9186 26.4849 43.7292 26.8638C43.5397 27.2426 43.3233 27.6756 43.0797 28.1627C42.8632 28.6498 42.6197 29.1639 42.3491 29.7051C42.1055 30.2463 41.862 30.7605 41.6184 31.2476C41.402 31.7347 41.199 32.1676 41.0096 32.5465C40.8202 32.9253 40.6849 33.2095 40.6037 33.3989C40.5766 33.5071 40.4684 33.656 40.279 33.8454C40.0895 34.0077 39.9678 34.1025 39.9136 34.1295C39.8595 34.1566 39.8325 34.1701 39.8325 34.1701H39.6295C39.6024 34.1701 39.5754 34.1566 39.5483 34.1295C39.4942 34.1025 39.413 34.0483 39.3048 33.9672C39.2236 33.886 39.183 33.8319 39.183 33.8048V31.2882Z" fill="black"/>
<path d="M60.9055 32.7494C60.9055 32.6683 60.9055 32.5329 60.9055 32.3435C60.9055 32.127 60.892 31.9106 60.8649 31.6941C60.8649 31.4505 60.8649 31.234 60.8649 31.0446C60.8649 30.8281 60.8649 30.6658 60.8649 30.5575C60.8649 29.7728 60.9326 29.0151 61.0679 28.2845C61.2032 27.5268 61.352 26.7826 61.5144 26.052C61.7038 25.2943 61.8662 24.5366 62.0015 23.7789C62.1368 23.0212 62.2044 22.25 62.2044 21.4652C61.8797 21.4652 61.4873 21.6141 61.0273 21.9117C60.5943 22.2094 60.1343 22.5476 59.6472 22.9265C59.1601 23.3053 58.7001 23.6977 58.2671 24.1036C57.8612 24.4825 57.55 24.7666 57.3335 24.956C57.3335 24.956 57.2929 24.956 57.2118 24.956C57.1306 24.956 57.0629 24.956 57.0088 24.956C56.4947 24.956 56.2376 24.7125 56.2376 24.2254C56.2376 23.9007 56.4 23.5624 56.7247 23.2106C57.0765 22.8318 57.4959 22.4665 57.983 22.1147C58.4971 21.7358 59.0384 21.384 59.6066 21.0593C60.202 20.7346 60.7432 20.4369 61.2302 20.1663C61.7444 19.8687 62.1638 19.6116 62.4886 19.3951C62.8403 19.1786 63.0162 19.0027 63.0162 18.8674C63.2598 17.7309 63.368 16.7838 63.341 16.0261C63.3139 15.2684 63.2057 14.6595 63.0162 14.1995C62.8539 13.7395 62.6103 13.4283 62.2856 13.2659C61.9879 13.0765 61.6632 12.9953 61.3114 13.0224C60.9867 13.0494 60.6484 13.1712 60.2967 13.3877C59.9449 13.6042 59.6472 13.8748 59.4037 14.1995C59.2142 13.983 59.0925 13.8071 59.0384 13.6718C58.9842 13.5094 58.9572 13.3336 58.9572 13.1441C59.5796 12.5217 60.1884 12.1294 60.7838 11.967C61.4061 11.8046 61.9879 11.8182 62.5292 12.0076C63.0704 12.17 63.5574 12.4676 63.9904 12.9006C64.4234 13.3336 64.7481 13.8477 64.9646 14.443C65.2081 15.0113 65.3164 15.6337 65.2893 16.3102C65.2893 16.9597 65.127 17.5956 64.8022 18.218C64.8564 18.1909 64.9646 18.1368 65.127 18.0556C65.2893 17.9744 65.4652 17.9068 65.6546 17.8527C65.8441 17.7715 66.02 17.7038 66.1823 17.6497C66.3717 17.5685 66.507 17.5144 66.5882 17.4873H66.9129C66.94 17.4873 66.9671 17.582 66.9941 17.7715C67.0482 17.9338 67.1024 18.1368 67.1565 18.3803C67.2377 18.5968 67.3053 18.7998 67.3594 18.9892C67.4136 19.1516 67.4406 19.2463 67.4406 19.2733L64.4369 20.694C64.4099 20.7211 64.3151 21.0187 64.1528 21.587C64.0175 22.1282 63.8551 22.7777 63.6657 23.5353C63.4763 24.266 63.2868 25.0372 63.0974 25.849C62.908 26.6338 62.7727 27.2697 62.6915 27.7568C62.6374 27.865 62.5833 28.0815 62.5292 28.4062C62.5021 28.7039 62.475 29.0286 62.448 29.3804C62.4209 29.7051 62.3938 30.0299 62.3668 30.3546C62.3397 30.6522 62.3262 30.8552 62.3262 30.9634C62.3262 31.1258 62.3397 31.3152 62.3668 31.5317C62.3938 31.7482 62.4344 31.9512 62.4886 32.1406C62.5697 32.3029 62.678 32.4518 62.8133 32.5871C62.9486 32.6953 63.1245 32.7494 63.341 32.7494C64.1257 32.7494 64.8158 32.6006 65.4111 32.3029C66.0335 31.9782 66.5747 31.6264 67.0347 31.2476C67.4947 30.8687 67.9007 30.5169 68.2524 30.1922C68.6313 29.8675 68.9695 29.7051 69.2672 29.7051C69.3213 29.7051 69.389 29.7187 69.4702 29.7457C69.5784 29.7457 69.6325 29.7593 69.6325 29.7863C69.5513 30.5711 69.3213 31.2476 68.9425 31.8158C68.5907 32.3571 68.1442 32.8036 67.603 33.1553C67.0888 33.5071 66.48 33.7642 65.7764 33.9266C65.0728 34.0889 64.3151 34.1701 63.5033 34.1701C63.2598 34.1701 62.9892 34.1566 62.6915 34.1295C62.3938 34.1025 62.1232 34.0348 61.8797 33.9266C61.6362 33.8183 61.4197 33.6695 61.2302 33.4801C61.0679 33.2906 60.9596 33.0471 60.9055 32.7494Z" fill="black"/>
<path d="M82.0192 29.1775C81.6133 29.6645 81.1397 30.1787 80.5985 30.7199C80.0844 31.2611 79.5161 31.7617 78.8937 32.2218C78.2984 32.6818 77.6624 33.0742 76.9859 33.3989C76.3365 33.6966 75.66 33.8454 74.9564 33.8454C73.5222 33.8454 72.8051 33.1553 72.8051 31.7753C72.8051 31.207 73.0351 30.4628 73.4951 29.5428C73.9822 28.5957 74.6046 27.6079 75.3623 26.5796C76.12 25.5514 76.9589 24.5636 77.8789 23.6165C78.799 22.6424 79.719 21.8441 80.6391 21.2217C81.5591 20.5722 82.398 20.1663 83.1557 20.004C83.9405 19.8416 84.5764 20.0716 85.0635 20.694C85.0635 21.4246 85.0094 22.1553 84.9011 22.8859C84.7929 23.6165 84.6846 24.3472 84.5764 25.0778C84.4681 25.7814 84.3599 26.4849 84.2517 27.1885C84.1434 27.8921 84.0893 28.6092 84.0893 29.3398C84.0893 29.5022 84.1028 29.7593 84.1299 30.111C84.184 30.4358 84.2517 30.774 84.3328 31.1258C84.4411 31.4505 84.5764 31.7482 84.7387 32.0188C84.9011 32.2623 85.1176 32.3841 85.3882 32.3841C86.0377 32.3841 86.5653 32.3029 86.9712 32.1406C87.4042 31.9782 87.7695 31.7888 88.0672 31.5723C88.3919 31.3288 88.6625 31.0582 88.879 30.7605C89.1225 30.4628 89.3661 30.1652 89.6096 29.8675C89.8802 29.5698 90.1779 29.2857 90.5026 29.0151C90.8274 28.7445 91.2468 28.528 91.7609 28.3656C91.7609 28.3656 91.7609 28.4062 91.7609 28.4874C91.7609 28.5686 91.7609 28.6362 91.7609 28.6904C91.7609 29.3669 91.558 30.0434 91.1521 30.7199C90.7462 31.3694 90.232 31.9512 89.6096 32.4653C88.9872 32.9794 88.2837 33.3989 87.4989 33.7236C86.7412 34.0213 85.9971 34.1701 85.2664 34.1701C84.644 34.1701 84.1434 33.9942 83.7646 33.6424C83.3857 33.2906 83.0745 32.8712 82.831 32.3841C82.6145 31.897 82.4521 31.3694 82.3439 30.8011C82.2357 30.2058 82.1274 29.6645 82.0192 29.1775ZM82.7498 23.8601C83.0204 22.9671 83.1151 22.3582 83.0339 22.0335C82.9798 21.7088 82.7904 21.587 82.4657 21.6682C82.1409 21.7223 81.7215 21.9523 81.2074 22.3582C80.6932 22.7371 80.1385 23.2106 79.5431 23.7789C78.9478 24.3201 78.3525 24.929 77.7572 25.6055C77.1618 26.282 76.6071 26.9314 76.0929 27.5538C75.5788 28.1492 75.1593 28.6904 74.8346 29.1775C74.5099 29.6645 74.3069 30.0163 74.2258 30.2328C74.0634 30.8552 74.0363 31.3288 74.1446 31.6535C74.2799 31.9782 74.4693 32.2082 74.7129 32.3435C74.9835 32.4518 75.2676 32.4653 75.5653 32.3841C75.89 32.3029 76.1606 32.1812 76.3771 32.0188C76.8371 31.6129 77.4189 31.0717 78.1225 30.3952C78.826 29.6916 79.5025 28.9474 80.152 28.1627C80.8285 27.3779 81.4103 26.6067 81.8974 25.849C82.3845 25.0643 82.6686 24.4013 82.7498 23.8601Z" fill="black"/>
<path d="M97.856 28.4468C97.856 27.7432 97.8966 27.0532 97.9778 26.3767C98.059 25.6731 98.1402 24.9831 98.2214 24.3066C98.3296 23.603 98.4243 22.913 98.5055 22.2364C98.5867 21.5329 98.6273 20.8158 98.6273 20.0851C98.6273 19.9228 98.5867 19.7469 98.5055 19.5575C98.4514 19.341 98.289 19.2327 98.0184 19.2327C97.6666 19.2327 97.4366 19.2598 97.3284 19.3139C97.2201 19.368 97.1389 19.4357 97.0848 19.5169C97.0578 19.5981 96.9901 19.6928 96.8819 19.801C96.8007 19.9092 96.5977 20.0175 96.273 20.1257H96.07C95.5018 20.1257 95.2176 19.8281 95.2176 19.2327C95.2176 19.0704 95.3935 18.8133 95.7453 18.4615C96.1242 18.1097 96.5571 17.785 97.0442 17.4873C97.5313 17.1626 97.9913 16.892 98.4243 16.6755C98.8573 16.432 99.1414 16.3508 99.2767 16.432C99.3308 16.432 99.412 16.4861 99.5203 16.5943C99.6285 16.6755 99.7367 16.7838 99.845 16.9191C99.9532 17.0273 100.048 17.1355 100.129 17.2438C100.237 17.352 100.305 17.4332 100.332 17.4873C100.332 17.5415 100.332 17.6497 100.332 17.8121C100.332 17.9744 100.332 18.1503 100.332 18.3397C100.359 18.5292 100.373 18.7186 100.373 18.908C100.373 19.0704 100.373 19.1921 100.373 19.2733C100.373 20.0581 100.319 20.8428 100.21 21.6276C100.102 22.3853 99.9668 23.1565 99.8044 23.9413C99.6691 24.726 99.5473 25.5108 99.4391 26.2955C99.3308 27.0803 99.2767 27.865 99.2767 28.6498C99.2767 28.7851 99.2902 29.0557 99.3173 29.4616C99.3444 29.8675 99.3985 30.2869 99.4797 30.7199C99.5879 31.1529 99.7367 31.5452 99.9262 31.897C100.116 32.2218 100.373 32.3841 100.697 32.3841C101.347 32.3841 101.834 32.3029 102.159 32.1406C102.483 31.9512 102.768 31.7482 103.011 31.5317C103.255 31.3152 103.512 31.1258 103.782 30.9634C104.08 30.774 104.486 30.6793 105 30.6793C105 31.8158 104.581 32.6818 103.742 33.2771C102.903 33.8724 101.834 34.1701 100.535 34.1701C99.8585 34.1701 99.3444 33.9536 98.9926 33.5207C98.6408 33.0877 98.3702 32.5735 98.1808 31.9782C98.0184 31.3558 97.9237 30.7199 97.8966 30.0704C97.8696 29.421 97.856 28.8798 97.856 28.4468ZM98.2619 11.4799C98.2619 11.1822 98.3025 10.9522 98.3837 10.7899C98.492 10.6275 98.722 10.5463 99.0738 10.5463C99.3173 10.5463 99.4797 10.641 99.5608 10.8305C99.6691 10.9928 99.7232 11.2093 99.7232 11.4799C99.7232 11.7235 99.6691 11.9399 99.5608 12.1294C99.4797 12.2917 99.3173 12.3729 99.0738 12.3729C98.722 12.3729 98.492 12.3053 98.3837 12.17C98.3025 12.0076 98.2619 11.7776 98.2619 11.4799Z" fill="black"/>
<mask id="mask0_127_20" style="mask-type:alpha" maskUnits="userSpaceOnUse" x="27" y="0" width="52" height="51">
<path d="M78.1668 25.4352C78.1668 39.4827 66.7791 50.8704 52.7316 50.8704C38.6841 50.8704 27.2964 39.4827 27.2964 25.4352C27.2964 11.3877 38.6841 0 52.7316 0C66.7791 0 78.1668 11.3877 78.1668 25.4352Z" fill="#CC1414"/>
</mask>
<g mask="url(#mask0_127_20)">
<path d="M0 27.2291C0 27.175 0 27.0938 0 26.9856C0 26.8773 0 26.7555 0 26.6202C0.0270605 26.4849 0.0405907 26.3632 0.0405907 26.2549C0.0405907 26.1196 0.0405907 26.0384 0.0405907 26.0114C0.0676512 25.9302 0.162363 25.8355 0.324726 25.7272C0.514149 25.619 0.649451 25.5784 0.730632 25.6055C0.892995 25.6596 1.04183 25.849 1.17713 26.1737C1.31243 26.4985 1.44773 26.8908 1.58304 27.3509C1.71834 27.8109 1.86717 28.325 2.02953 28.8933C2.21896 29.4345 2.44897 29.9487 2.71958 30.4358C3.01724 30.8958 3.36903 31.3152 3.77493 31.6941C4.2079 32.0459 4.72205 32.2759 5.31738 32.3841C5.5068 32.4112 5.65564 32.4112 5.76388 32.3841C5.87212 32.33 5.93977 32.2623 5.96683 32.1812C6.02095 32.0729 6.04801 31.9647 6.04801 31.8564C6.04801 31.7211 6.04801 31.6129 6.04801 31.5317C6.02095 31.0446 5.83153 30.544 5.47974 30.0299C5.12796 29.4886 4.70852 28.9204 4.22143 28.325C3.73434 27.7027 3.24726 27.0532 2.76017 26.3767C2.27308 25.6731 1.86717 24.9425 1.54245 24.1848C1.21772 23.4 1.01477 22.5747 0.933586 21.7088C0.852405 20.8158 1.01477 19.8687 1.42067 18.8674C1.42067 18.6239 1.54245 18.2991 1.78599 17.8932C2.0566 17.4873 2.36779 17.1085 2.71958 16.7567C3.09842 16.3779 3.4908 16.0531 3.89671 15.7825C4.30261 15.5119 4.6544 15.3766 4.95206 15.3766C5.38503 15.3766 5.79094 15.4578 6.16979 15.6202C6.57569 15.7825 6.88689 16.0531 7.10337 16.432C7.37398 16.7838 7.68517 17.2573 8.03696 17.8527C8.4158 18.4209 8.74053 18.9892 9.01113 19.5575C9.3088 20.1257 9.49822 20.6399 9.5794 21.0999C9.66058 21.5599 9.53881 21.8305 9.21409 21.9117C8.83524 21.9117 8.51052 21.8035 8.23991 21.587C7.99637 21.3705 7.79341 21.0999 7.63105 20.7752C7.46869 20.4505 7.31985 20.0987 7.18455 19.7198C7.04925 19.3139 6.90042 18.9486 6.73805 18.6239C6.57569 18.2991 6.38627 18.0285 6.16979 17.8121C5.9533 17.5685 5.66917 17.4467 5.31738 17.4467C4.83029 17.4467 4.39733 17.5956 4.01848 17.8932C3.66669 18.1909 3.36903 18.5562 3.12548 18.9892C2.909 19.4222 2.74664 19.8957 2.63839 20.4099C2.55721 20.897 2.51662 21.3299 2.51662 21.7088C2.51662 22.3853 2.63839 23.0212 2.88194 23.6165C3.15254 24.1848 3.47727 24.7395 3.85612 25.2807C4.26202 25.7949 4.69499 26.309 5.15502 26.8232C5.64211 27.3373 6.07507 27.865 6.45392 28.4062C6.85983 28.9204 7.19808 29.4616 7.46869 30.0299C7.73929 30.5981 7.87459 31.207 7.87459 31.8564C7.87459 32.127 7.80694 32.3976 7.67164 32.6683C7.5634 32.9118 7.40104 33.1553 7.18455 33.3989C6.99513 33.6154 6.76512 33.7913 6.49451 33.9266C6.22391 34.0619 5.9533 34.1295 5.6827 34.1295C4.925 34.1295 4.2079 33.8995 3.53139 33.4395C2.85488 32.9794 2.24602 32.3976 1.70481 31.6941C1.19066 30.9905 0.771223 30.2463 0.446498 29.4616C0.148833 28.6498 0 27.9056 0 27.2291Z" fill="white"/>
<path d="M23.5897 29.1775C23.1838 29.6645 22.7102 30.1787 22.169 30.7199C21.6549 31.2611 21.0866 31.7617 20.4642 32.2218C19.8689 32.6818 19.233 33.0742 18.5564 33.3989C17.907 33.6966 17.2305 33.8454 16.5269 33.8454C15.0927 33.8454 14.3756 33.1553 14.3756 31.7753C14.3756 31.207 14.6056 30.4628 15.0656 29.5428C15.5527 28.5957 16.1751 27.6079 16.9328 26.5796C17.6905 25.5514 18.5294 24.5636 19.4494 23.6165C20.3695 22.6424 21.2895 21.8441 22.2096 21.2217C23.1297 20.5722 23.9685 20.1663 24.7262 20.004C25.511 19.8416 26.1469 20.0716 26.634 20.694C26.634 21.4246 26.5799 22.1553 26.4716 22.8859C26.3634 23.6165 26.2551 24.3472 26.1469 25.0778C26.0387 25.7814 25.9304 26.4849 25.8222 27.1885C25.7139 27.8921 25.6598 28.6092 25.6598 29.3398C25.6598 29.5022 25.6733 29.7593 25.7004 30.111C25.7545 30.4358 25.8222 30.774 25.9034 31.1258C26.0116 31.4505 26.1469 31.7482 26.3093 32.0188C26.4716 32.2623 26.6881 32.3841 26.9587 32.3841C27.6082 32.3841 28.1358 32.3029 28.5417 32.1406C28.9747 31.9782 29.34 31.7888 29.6377 31.5723C29.9624 31.3288 30.233 31.0582 30.4495 30.7605C30.6931 30.4628 30.9366 30.1652 31.1801 29.8675C31.4507 29.5698 31.7484 29.2857 32.0731 29.0151C32.3979 28.7445 32.8173 28.528 33.3315 28.3656C33.3315 28.3656 33.3315 28.4062 33.3315 28.4874C33.3315 28.5686 33.3315 28.6362 33.3315 28.6904C33.3315 29.3669 33.1285 30.0434 32.7226 30.7199C32.3167 31.3694 31.8025 31.9512 31.1801 32.4653C30.5578 32.9794 29.8542 33.3989 29.0694 33.7236C28.3117 34.0213 27.5676 34.1701 26.8369 34.1701C26.2146 34.1701 25.7139 33.9942 25.3351 33.6424C24.9562 33.2906 24.645 32.8712 24.4015 32.3841C24.185 31.897 24.0227 31.3694 23.9144 30.8011C23.8062 30.2058 23.6979 29.6645 23.5897 29.1775ZM24.3203 23.8601C24.5909 22.9671 24.6856 22.3582 24.6045 22.0335C24.5503 21.7088 24.3609 21.587 24.0362 21.6682C23.7115 21.7223 23.292 21.9523 22.7779 22.3582C22.2637 22.7371 21.709 23.2106 21.1137 23.7789C20.5183 24.3201 19.923 24.929 19.3277 25.6055C18.7323 26.282 18.1776 26.9314 17.6634 27.5538C17.1493 28.1492 16.7299 28.6904 16.4051 29.1775C16.0804 29.6645 15.8775 30.0163 15.7963 30.2328C15.6339 30.8552 15.6069 31.3288 15.7151 31.6535C15.8504 31.9782 16.0398 32.2082 16.2834 32.3435C16.554 32.4518 16.8381 32.4653 17.1358 32.3841C17.4605 32.3029 17.7311 32.1812 17.9476 32.0188C18.4076 31.6129 18.9894 31.0717 19.693 30.3952C20.3966 29.6916 21.0731 28.9474 21.7225 28.1627C22.399 27.3779 22.9808 26.6067 23.4679 25.849C23.955 25.0643 24.2391 24.4013 24.3203 23.8601Z" fill="white"/>
<path d="M39.183 31.2882C39.2371 31.0717 39.3183 30.7199 39.4266 30.2328C39.5348 29.7187 39.643 29.1504 39.7513 28.528C39.8866 27.9056 40.0084 27.2426 40.1166 26.5391C40.2519 25.8355 40.3737 25.1725 40.4819 24.5501C40.6172 23.9277 40.7255 23.3595 40.8066 22.8453C40.8878 22.3312 40.9419 21.9523 40.969 21.7088C40.9961 21.6005 40.9961 21.4382 40.969 21.2217C40.9419 21.0052 40.9149 20.7617 40.8878 20.491C40.8608 20.2204 40.8337 19.9769 40.8066 19.7604C40.7796 19.5439 40.766 19.3816 40.766 19.2733C40.6849 19.2733 40.5496 19.2463 40.3601 19.1921C40.1707 19.138 39.9678 19.0974 39.7513 19.0704C39.5619 19.0162 39.386 18.9757 39.2236 18.9486C39.0612 18.8945 38.9395 18.8674 38.8583 18.8674C38.2088 19.111 37.7217 19.4222 37.397 19.801C37.0993 20.1528 36.8152 20.5046 36.5446 20.8564C36.3011 21.2081 36.0034 21.5193 35.6516 21.7899C35.2998 22.0335 34.7857 22.1553 34.1092 22.1553C33.8656 22.1553 33.6897 22.0606 33.5815 21.8711C33.4733 21.6817 33.4191 21.4652 33.4191 21.2217V21.0593C34.0145 20.3828 34.5827 19.801 35.1239 19.3139C35.6381 18.8268 36.1928 18.4209 36.7882 18.0962C37.3835 17.7444 38.0329 17.4873 38.7365 17.325C39.4401 17.1626 40.2519 17.0814 41.1719 17.0814C41.5779 17.0814 41.8755 17.1626 42.0649 17.325C42.2814 17.4603 42.4438 17.6497 42.552 17.8932C42.6603 18.1097 42.7144 18.3668 42.7144 18.6645C42.7415 18.9621 42.755 19.2869 42.755 19.6386C42.755 20.3693 42.6738 21.0999 42.5114 21.8305C42.3761 22.5341 42.2138 23.2512 42.0244 23.9818C41.862 24.6854 41.6996 25.4025 41.5373 26.1332C41.3749 26.8367 41.2937 27.5674 41.2937 28.325V28.4874C41.3749 28.2709 41.5508 27.9191 41.8214 27.4321C42.092 26.9179 42.3761 26.3767 42.6738 25.8084C42.9715 25.2402 43.2556 24.7125 43.5262 24.2254C43.8239 23.7112 44.0268 23.3595 44.1351 23.17C44.1621 23.143 44.2568 23.0347 44.4192 22.8453C44.5816 22.6288 44.771 22.3853 44.9875 22.1147C45.231 21.8441 45.461 21.587 45.6775 21.3434C45.9211 21.0728 46.124 20.8564 46.2864 20.694C46.4487 20.4775 46.6382 20.2475 46.8546 20.004C47.0982 19.7604 47.3417 19.5304 47.5853 19.3139C47.8559 19.0974 48.1265 18.9215 48.3971 18.7862C48.6948 18.6239 48.9924 18.5427 49.2901 18.5427C49.5336 18.5427 49.7095 18.6374 49.8178 18.8268C49.9531 19.0162 50.0478 19.2463 50.1019 19.5169C50.156 19.7875 50.1831 20.0716 50.1831 20.3693C50.1831 20.6399 50.1831 20.8699 50.1831 21.0593C50.1831 21.8711 50.0884 22.6829 49.8989 23.4948C49.7095 24.3066 49.5066 25.1184 49.2901 25.9302C49.0736 26.715 48.8571 27.5132 48.6406 28.325C48.4512 29.1369 48.3565 29.9487 48.3565 30.7605C48.3565 31.1123 48.4106 31.4099 48.5189 31.6535C48.6271 31.897 48.8707 32.0188 49.2495 32.0188C49.7366 32.0188 50.1831 31.8835 50.589 31.6129C50.9949 31.3423 51.3737 31.0582 51.7255 30.7605C52.1044 30.4358 52.4697 30.1381 52.8215 29.8675C53.2003 29.5969 53.6198 29.4616 54.0798 29.4616V30.2328C54.0798 30.2599 54.0121 30.3411 53.8768 30.4764C53.7415 30.6117 53.5792 30.774 53.3897 30.9634C53.2003 31.1529 52.9974 31.3423 52.7809 31.5317C52.5915 31.7211 52.4291 31.8835 52.2938 32.0188C52.0773 32.2082 51.8338 32.4112 51.5632 32.6277C51.2926 32.8441 51.0084 33.0471 50.7108 33.2365C50.4402 33.3989 50.1425 33.5477 49.8178 33.683C49.493 33.7913 49.1818 33.8454 48.8842 33.8454C48.4783 33.8454 48.14 33.7371 47.8694 33.5207C47.6259 33.2771 47.4364 32.993 47.3011 32.6683C47.1658 32.3165 47.0711 31.9512 47.017 31.5723C46.9629 31.1935 46.9358 30.8552 46.9358 30.5575C46.9358 29.7457 47.0035 28.9474 47.1388 28.1627C47.3011 27.3509 47.4635 26.5661 47.6259 25.8084C47.7882 25.0237 47.9371 24.2389 48.0724 23.4542C48.2077 22.6694 48.2753 21.8711 48.2753 21.0593H48.0318C48.0047 21.0593 47.91 21.1405 47.7476 21.3029C47.5853 21.4652 47.3823 21.6546 47.1388 21.8711C46.9223 22.0876 46.7058 22.3176 46.4893 22.5612C46.2728 22.8047 46.0834 23.0077 45.9211 23.17C45.7858 23.3324 45.6369 23.5353 45.4746 23.7789C45.3122 23.9954 45.1498 24.2389 44.9875 24.5095C44.8251 24.7801 44.6627 25.0507 44.5004 25.3213C44.3651 25.5649 44.2433 25.7949 44.1351 26.0114C44.0539 26.2008 43.9186 26.4849 43.7292 26.8638C43.5397 27.2426 43.3233 27.6756 43.0797 28.1627C42.8632 28.6498 42.6197 29.1639 42.3491 29.7051C42.1055 30.2463 41.862 30.7605 41.6184 31.2476C41.402 31.7347 41.199 32.1676 41.0096 32.5465C40.8202 32.9253 40.6849 33.2095 40.6037 33.3989C40.5766 33.5071 40.4684 33.656 40.279 33.8454C40.0895 34.0077 39.9678 34.1025 39.9136 34.1295C39.8595 34.1566 39.8325 34.1701 39.8325 34.1701H39.6295C39.6024 34.1701 39.5754 34.1566 39.5483 34.1295C39.4942 34.1025 39.413 34.0483 39.3048 33.9672C39.2236 33.886 39.183 33.8319 39.183 33.8048V31.2882Z" fill="white"/>
<path d="M60.9055 32.7494C60.9055 32.6683 60.9055 32.5329 60.9055 32.3435C60.9055 32.127 60.892 31.9106 60.8649 31.6941C60.8649 31.4505 60.8649 31.234 60.8649 31.0446C60.8649 30.8281 60.8649 30.6658 60.8649 30.5575C60.8649 29.7728 60.9326 29.0151 61.0679 28.2845C61.2032 27.5268 61.352 26.7826 61.5144 26.052C61.7038 25.2943 61.8662 24.5366 62.0015 23.7789C62.1368 23.0212 62.2044 22.25 62.2044 21.4652C61.8797 21.4652 61.4873 21.6141 61.0273 21.9117C60.5943 22.2094 60.1343 22.5476 59.6472 22.9265C59.1601 23.3053 58.7001 23.6977 58.2671 24.1036C57.8612 24.4825 57.55 24.7666 57.3335 24.956C57.3335 24.956 57.2929 24.956 57.2118 24.956C57.1306 24.956 57.0629 24.956 57.0088 24.956C56.4947 24.956 56.2376 24.7125 56.2376 24.2254C56.2376 23.9007 56.4 23.5624 56.7247 23.2106C57.0765 22.8318 57.4959 22.4665 57.983 22.1147C58.4971 21.7358 59.0384 21.384 59.6066 21.0593C60.202 20.7346 60.7432 20.4369 61.2302 20.1663C61.7444 19.8687 62.1638 19.6116 62.4886 19.3951C62.8403 19.1786 63.0162 19.0027 63.0162 18.8674C63.2598 17.7309 63.368 16.7838 63.341 16.0261C63.3139 15.2684 63.2057 14.6595 63.0162 14.1995C62.8539 13.7395 62.6103 13.4283 62.2856 13.2659C61.9879 13.0765 61.6632 12.9953 61.3114 13.0224C60.9867 13.0494 60.6484 13.1712 60.2967 13.3877C59.9449 13.6042 59.6472 13.8748 59.4037 14.1995C59.2142 13.983 59.0925 13.8071 59.0384 13.6718C58.9842 13.5094 58.9572 13.3336 58.9572 13.1441C59.5796 12.5217 60.1884 12.1294 60.7838 11.967C61.4061 11.8046 61.9879 11.8182 62.5292 12.0076C63.0704 12.17 63.5574 12.4676 63.9904 12.9006C64.4234 13.3336 64.7481 13.8477 64.9646 14.443C65.2081 15.0113 65.3164 15.6337 65.2893 16.3102C65.2893 16.9597 65.127 17.5956 64.8022 18.218C64.8564 18.1909 64.9646 18.1368 65.127 18.0556C65.2893 17.9744 65.4652 17.9068 65.6546 17.8527C65.8441 17.7715 66.02 17.7038 66.1823 17.6497C66.3717 17.5685 66.507 17.5144 66.5882 17.4873H66.9129C66.94 17.4873 66.9671 17.582 66.9941 17.7715C67.0482 17.9338 67.1024 18.1368 67.1565 18.3803C67.2377 18.5968 67.3053 18.7998 67.3594 18.9892C67.4136 19.1516 67.4406 19.2463 67.4406 19.2733L64.4369 20.694C64.4099 20.7211 64.3151 21.0187 64.1528 21.587C64.0175 22.1282 63.8551 22.7777 63.6657 23.5353C63.4763 24.266 63.2868 25.0372 63.0974 25.849C62.908 26.6338 62.7727 27.2697 62.6915 27.7568C62.6374 27.865 62.5833 28.0815 62.5292 28.4062C62.5021 28.7039 62.475 29.0286 62.448 29.3804C62.4209 29.7051 62.3938 30.0299 62.3668 30.3546C62.3397 30.6522 62.3262 30.8552 62.3262 30.9634C62.3262 31.1258 62.3397 31.3152 62.3668 31.5317C62.3938 31.7482 62.4344 31.9512 62.4886 32.1406C62.5697 32.3029 62.678 32.4518 62.8133 32.5871C62.9486 32.6953 63.1245 32.7494 63.341 32.7494C64.1257 32.7494 64.8158 32.6006 65.4111 32.3029C66.0335 31.9782 66.5747 31.6264 67.0347 31.2476C67.4947 30.8687 67.9007 30.5169 68.2524 30.1922C68.6313 29.8675 68.9695 29.7051 69.2672 29.7051C69.3213 29.7051 69.389 29.7187 69.4702 29.7457C69.5784 29.7457 69.6325 29.7593 69.6325 29.7863C69.5513 30.5711 69.3213 31.2476 68.9425 31.8158C68.5907 32.3571 68.1442 32.8036 67.603 33.1553C67.0888 33.5071 66.48 33.7642 65.7764 33.9266C65.0728 34.0889 64.3151 34.1701 63.5033 34.1701C63.2598 34.1701 62.9892 34.1566 62.6915 34.1295C62.3938 34.1025 62.1232 34.0348 61.8797 33.9266C61.6362 33.8183 61.4197 33.6695 61.2302 33.4801C61.0679 33.2906 60.9596 33.0471 60.9055 32.7494Z" fill="white"/>
<path d="M82.0192 29.1775C81.6133 29.6645 81.1397 30.1787 80.5985 30.7199C80.0844 31.2611 79.5161 31.7617 78.8937 32.2218C78.2984 32.6818 77.6624 33.0742 76.9859 33.3989C76.3365 33.6966 75.66 33.8454 74.9564 33.8454C73.5222 33.8454 72.8051 33.1553 72.8051 31.7753C72.8051 31.207 73.0351 30.4628 73.4951 29.5428C73.9822 28.5957 74.6046 27.6079 75.3623 26.5796C76.12 25.5514 76.9589 24.5636 77.8789 23.6165C78.799 22.6424 79.719 21.8441 80.6391 21.2217C81.5591 20.5722 82.398 20.1663 83.1557 20.004C83.9405 19.8416 84.5764 20.0716 85.0635 20.694C85.0635 21.4246 85.0094 22.1553 84.9011 22.8859C84.7929 23.6165 84.6846 24.3472 84.5764 25.0778C84.4681 25.7814 84.3599 26.4849 84.2517 27.1885C84.1434 27.8921 84.0893 28.6092 84.0893 29.3398C84.0893 29.5022 84.1028 29.7593 84.1299 30.111C84.184 30.4358 84.2517 30.774 84.3328 31.1258C84.4411 31.4505 84.5764 31.7482 84.7387 32.0188C84.9011 32.2623 85.1176 32.3841 85.3882 32.3841C86.0377 32.3841 86.5653 32.3029 86.9712 32.1406C87.4042 31.9782 87.7695 31.7888 88.0672 31.5723C88.3919 31.3288 88.6625 31.0582 88.879 30.7605C89.1225 30.4628 89.3661 30.1652 89.6096 29.8675C89.8802 29.5698 90.1779 29.2857 90.5026 29.0151C90.8274 28.7445 91.2468 28.528 91.7609 28.3656C91.7609 28.3656 91.7609 28.4062 91.7609 28.4874C91.7609 28.5686 91.7609 28.6362 91.7609 28.6904C91.7609 29.3669 91.558 30.0434 91.1521 30.7199C90.7462 31.3694 90.232 31.9512 89.6096 32.4653C88.9872 32.9794 88.2837 33.3989 87.4989 33.7236C86.7412 34.0213 85.9971 34.1701 85.2664 34.1701C84.644 34.1701 84.1434 33.9942 83.7646 33.6424C83.3857 33.2906 83.0745 32.8712 82.831 32.3841C82.6145 31.897 82.4521 31.3694 82.3439 30.8011C82.2357 30.2058 82.1274 29.6645 82.0192 29.1775ZM82.7498 23.8601C83.0204 22.9671 83.1151 22.3582 83.0339 22.0335C82.9798 21.7088 82.7904 21.587 82.4657 21.6682C82.1409 21.7223 81.7215 21.9523 81.2074 22.3582C80.6932 22.7371 80.1385 23.2106 79.5431 23.7789C78.9478 24.3201 78.3525 24.929 77.7572 25.6055C77.1618 26.282 76.6071 26.9314 76.0929 27.5538C75.5788 28.1492 75.1593 28.6904 74.8346 29.1775C74.5099 29.6645 74.3069 30.0163 74.2258 30.2328C74.0634 30.8552 74.0363 31.3288 74.1446 31.6535C74.2799 31.9782 74.4693 32.2082 74.7129 32.3435C74.9835 32.4518 75.2676 32.4653 75.5653 32.3841C75.89 32.3029 76.1606 32.1812 76.3771 32.0188C76.8371 31.6129 77.4189 31.0717 78.1225 30.3952C78.826 29.6916 79.5025 28.9474 80.152 28.1627C80.8285 27.3779 81.4103 26.6067 81.8974 25.849C82.3845 25.0643 82.6686 24.4013 82.7498 23.8601Z" fill="white"/>
<path d="M97.856 28.4468C97.856 27.7432 97.8966 27.0532 97.9778 26.3767C98.059 25.6731 98.1402 24.9831 98.2214 24.3066C98.3296 23.603 98.4243 22.913 98.5055 22.2364C98.5867 21.5329 98.6273 20.8158 98.6273 20.0851C98.6273 19.9228 98.5867 19.7469 98.5055 19.5575C98.4514 19.341 98.289 19.2327 98.0184 19.2327C97.6666 19.2327 97.4366 19.2598 97.3284 19.3139C97.2201 19.368 97.1389 19.4357 97.0848 19.5169C97.0578 19.5981 96.9901 19.6928 96.8819 19.801C96.8007 19.9092 96.5977 20.0175 96.273 20.1257H96.07C95.5018 20.1257 95.2176 19.8281 95.2176 19.2327C95.2176 19.0704 95.3935 18.8133 95.7453 18.4615C96.1242 18.1097 96.5571 17.785 97.0442 17.4873C97.5313 17.1626 97.9913 16.892 98.4243 16.6755C98.8573 16.432 99.1414 16.3508 99.2767 16.432C99.3308 16.432 99.412 16.4861 99.5203 16.5943C99.6285 16.6755 99.7367 16.7838 99.845 16.9191C99.9532 17.0273 100.048 17.1355 100.129 17.2438C100.237 17.352 100.305 17.4332 100.332 17.4873C100.332 17.5415 100.332 17.6497 100.332 17.8121C100.332 17.9744 100.332 18.1503 100.332 18.3397C100.359 18.5292 100.373 18.7186 100.373 18.908C100.373 19.0704 100.373 19.1921 100.373 19.2733C100.373 20.0581 100.319 20.8428 100.21 21.6276C100.102 22.3853 99.9668 23.1565 99.8044 23.9413C99.6691 24.726 99.5473 25.5108 99.4391 26.2955C99.3308 27.0803 99.2767 27.865 99.2767 28.6498C99.2767 28.7851 99.2902 29.0557 99.3173 29.4616C99.3444 29.8675 99.3985 30.2869 99.4797 30.7199C99.5879 31.1529 99.7367 31.5452 99.9262 31.897C100.116 32.2218 100.373 32.3841 100.697 32.3841C101.347 32.3841 101.834 32.3029 102.159 32.1406C102.483 31.9512 102.768 31.7482 103.011 31.5317C103.255 31.3152 103.512 31.1258 103.782 30.9634C104.08 30.774 104.486 30.6793 105 30.6793C105 31.8158 104.581 32.6818 103.742 33.2771C102.903 33.8724 101.834 34.1701 100.535 34.1701C99.8585 34.1701 99.3444 33.9536 98.9926 33.5207C98.6408 33.0877 98.3702 32.5735 98.1808 31.9782C98.0184 31.3558 97.9237 30.7199 97.8966 30.0704C97.8696 29.421 97.856 28.8798 97.856 28.4468ZM98.2619 11.4799C98.2619 11.1822 98.3025 10.9522 98.3837 10.7899C98.492 10.6275 98.722 10.5463 99.0738 10.5463C99.3173 10.5463 99.4797 10.641 99.5608 10.8305C99.6691 10.9928 99.7232 11.2093 99.7232 11.4799C99.7232 11.7235 99.6691 11.9399 99.5608 12.1294C99.4797 12.2917 99.3173 12.3729 99.0738 12.3729C98.722 12.3729 98.492 12.3053 98.3837 12.17C98.3025 12.0076 98.2619 11.7776 98.2619 11.4799Z" fill="white"/>
</g>
</svg>
