<svg width="18" height="17" viewBox="0 0 18 17" fill="none" xmlns="http://www.w3.org/2000/svg">
<path d="M7.98972 0.0606875C3.84132 0.499084 0.504556 3.74322 0.0536422 7.68879C-0.397271 11.8097 2.03766 15.4923 5.73515 16.8951C6.0057 16.9828 6.27625 16.8074 6.27625 16.4567V15.0539C6.27625 15.0539 5.91552 15.1415 5.4646 15.1415C4.20205 15.1415 3.66095 14.0894 3.57077 13.4756C3.48058 13.1249 3.30022 12.8619 3.02967 12.5988C2.75912 12.5112 2.66894 12.5112 2.66894 12.4235C2.66894 12.2481 2.93949 12.2481 3.02967 12.2481C3.57077 12.2481 4.02168 12.8619 4.20205 13.1249C4.65296 13.8263 5.19406 14.0017 5.4646 14.0017C5.82534 14.0017 6.09588 13.914 6.27625 13.8263C6.36643 13.2126 6.63698 12.5988 7.17808 12.2481C5.10387 11.8097 3.57077 10.6699 3.57077 8.74094C3.57077 7.77647 4.02168 6.812 4.65296 6.11056C4.56278 5.9352 4.47259 5.49681 4.47259 4.88305C4.47259 4.53233 4.47259 4.00626 4.74314 3.48018C4.74314 3.48018 6.0057 3.48018 7.26826 4.62001C7.71917 4.44466 8.35045 4.35698 8.98173 4.35698C9.61301 4.35698 10.2443 4.44466 10.7854 4.62001C11.9578 3.48018 13.3105 3.48018 13.3105 3.48018C13.4909 4.00626 13.4909 4.53233 13.4909 4.88305C13.4909 5.58449 13.4007 5.9352 13.3105 6.11056C13.9418 6.812 14.3927 7.68879 14.3927 8.74094C14.3927 10.6699 12.8596 11.8097 10.7854 12.2481C11.3265 12.6865 11.6872 13.4756 11.6872 14.2647V16.5444C11.6872 16.8074 11.9578 17.0705 12.3185 16.9828C15.6552 15.6676 18 12.5112 18 8.82862C18 3.56786 13.4007 -0.553068 7.98972 0.0606875Z" fill="white"/>
</svg>
